<svg viewBox="0 0 1100 720" width="1100" height="720" xmlns="http://www.w3.org/2000/svg">
<defs>
  <linearGradient id="grad" x1="0" y1="0" x2="1" y2="0">
    <stop offset="0" stop-color="#6C5CE7"/>
    <stop offset="0.5" stop-color="#A855F7"/>
    <stop offset="1" stop-color="#2DD4BF"/>
  </linearGradient>
  <linearGradient id="launch" x1="0" y1="0" x2="1" y2="0">
    <stop offset="0" stop-color="#6C5CE7"/>
    <stop offset="1" stop-color="#A855F7"/>
  </linearGradient>
  <filter id="soft" x="-20%" y="-20%" width="140%" height="140%">
    <feGaussianBlur stdDeviation="6"/>
  </filter>
</defs>
<rect x="0" y="0" width="1100" height="720" rx="14" ry="14" fill="#0E0B16"/>
<path d="M0,14 a14,14 0 0 1 14,-14 H1086 a14,14 0 0 1 14,14 V44 H0 Z" fill="#1A1626"/>
<circle cx="22" cy="22" r="6.5" fill="#FF5F57"/>
<circle cx="42" cy="22" r="6.5" fill="#FEBC2E"/>
<circle cx="62" cy="22" r="6.5" fill="#28C840"/>
<text x="550.0" y="27" font-family="-apple-system, 'SF Pro Display', 'Segoe UI', Helvetica, Arial, sans-serif" font-size="13" font-weight="600" fill="#8A85A0" text-anchor="middle" letter-spacing="0">AirMouse Studio</text>
<rect x="0" y="44" width="1100" height="74" rx="0" ry="0" fill="#1A1626"/>
<rect x="22" y="58" width="48" height="48" rx="14" ry="14" fill="#241E36"/>
<text x="46" y="91" font-family="-apple-system, 'SF Pro Display', 'Segoe UI', Helvetica, Arial, sans-serif" font-size="28" font-weight="bold" fill="#6C5CE7" text-anchor="middle" letter-spacing="0">◈</text>
<text x="86" y="78" font-family="-apple-system, 'SF Pro Display', 'Segoe UI', Helvetica, Arial, sans-serif" font-size="26" font-weight="bold" fill="#6C5CE7" text-anchor="start" letter-spacing="0">AirMouse</text>
<text x="87" y="98" font-family="-apple-system, 'SF Pro Display', 'Segoe UI', Helvetica, Arial, sans-serif" font-size="12" font-weight="normal" fill="#8A85A0" text-anchor="start" letter-spacing="0">Touch-Free Laptop Control · Powered by Your Hands</text>
<rect x="950" y="66" width="128" height="28" rx="14" ry="14" fill="#241E36"/>
<text x="1014" y="84" font-family="-apple-system, 'SF Pro Display', 'Segoe UI', Helvetica, Arial, sans-serif" font-size="12" font-weight="600" fill="#2DD4BF" text-anchor="middle" letter-spacing="0">v3.1  ·  Aurora</text>
<rect x="0" y="118" width="1100" height="5" fill="url(#grad)"/>
<text x="24" y="141" font-family="-apple-system, 'SF Pro Display', 'Segoe UI', Helvetica, Arial, sans-serif" font-size="13" font-weight="500" fill="#8A85A0" text-anchor="start" letter-spacing="0">Dashboard</text>
<text x="123.39999999999999" y="141" font-family="-apple-system, 'SF Pro Display', 'Segoe UI', Helvetica, Arial, sans-serif" font-size="13" font-weight="500" fill="#8A85A0" text-anchor="start" letter-spacing="0">Tuning</text>
<text x="197.0" y="141" font-family="-apple-system, 'SF Pro Display', 'Segoe UI', Helvetica, Arial, sans-serif" font-size="13" font-weight="500" fill="#8A85A0" text-anchor="start" letter-spacing="0">Camera</text>
<rect x="262.6" y="123" width="76.19999999999999" height="26" rx="8" ry="8" fill="#6C5CE7"/>
<text x="270.6" y="141" font-family="-apple-system, 'SF Pro Display', 'Segoe UI', Helvetica, Arial, sans-serif" font-size="13" font-weight="600" fill="#FFFFFF" text-anchor="start" letter-spacing="0">Options</text>
<text x="352.8" y="141" font-family="-apple-system, 'SF Pro Display', 'Segoe UI', Helvetica, Arial, sans-serif" font-size="13" font-weight="500" fill="#8A85A0" text-anchor="start" letter-spacing="0">Gestures</text>
<text x="443.6" y="141" font-family="-apple-system, 'SF Pro Display', 'Segoe UI', Helvetica, Arial, sans-serif" font-size="13" font-weight="500" fill="#8A85A0" text-anchor="start" letter-spacing="0">About</text>
<text x="24" y="198" font-family="-apple-system, 'SF Pro Display', 'Segoe UI', Helvetica, Arial, sans-serif" font-size="12" font-weight="bold" fill="#8A85A0" text-anchor="start" letter-spacing="0">Theme</text>
<circle cx="41" cy="229" r="17" fill="#6C5CE7" stroke="#FFFFFF" stroke-width="3"/>
<circle cx="83" cy="229" r="17" fill="#22D3EE"/>
<circle cx="125" cy="229" r="17" fill="#3B82F6"/>
<circle cx="167" cy="229" r="17" fill="#F97316"/>
<circle cx="209" cy="229" r="17" fill="#0EA5E9"/>
<text x="240" y="234" font-family="-apple-system, 'SF Pro Display', 'Segoe UI', Helvetica, Arial, sans-serif" font-size="11" font-weight="normal" fill="#2DD4BF" text-anchor="start" letter-spacing="0">Aurora</text>
<rect x="24" y="260" width="404" height="30" rx="8" ry="8" fill="#241E36"/>
<text x="38" y="280" font-family="-apple-system, 'SF Pro Display', 'Segoe UI', Helvetica, Arial, sans-serif" font-size="12" font-weight="normal" fill="#ECEAF5" text-anchor="start" letter-spacing="0">Aurora</text>
<text x="412" y="280" font-family="-apple-system, 'SF Pro Display', 'Segoe UI', Helvetica, Arial, sans-serif" font-size="12" font-weight="normal" fill="#6C5CE7" text-anchor="end" letter-spacing="0">▾</text>
<text x="24" y="304" font-family="-apple-system, 'SF Pro Display', 'Segoe UI', Helvetica, Arial, sans-serif" font-size="12" font-weight="bold" fill="#8A85A0" text-anchor="start" letter-spacing="0">Display</text>
<rect x="24" y="311" width="38" height="18" rx="9" ry="9" fill="#6C5CE7"/>
<circle cx="51" cy="320" r="6.5" fill="#FFFFFF"/>
<text x="74" y="325" font-family="-apple-system, 'SF Pro Display', 'Segoe UI', Helvetica, Arial, sans-serif" font-size="11.5" font-weight="normal" fill="#ECEAF5" text-anchor="start" letter-spacing="0">Mirror image (flip)</text>
<rect x="24" y="339" width="38" height="18" rx="9" ry="9" fill="#6C5CE7"/>
<circle cx="51" cy="348" r="6.5" fill="#FFFFFF"/>
<text x="74" y="353" font-family="-apple-system, 'SF Pro Display', 'Segoe UI', Helvetica, Arial, sans-serif" font-size="11.5" font-weight="normal" fill="#ECEAF5" text-anchor="start" letter-spacing="0">Show hand skeleton</text>
<rect x="24" y="367" width="38" height="18" rx="9" ry="9" fill="#6C5CE7"/>
<circle cx="51" cy="376" r="6.5" fill="#FFFFFF"/>
<text x="74" y="381" font-family="-apple-system, 'SF Pro Display', 'Segoe UI', Helvetica, Arial, sans-serif" font-size="11.5" font-weight="normal" fill="#ECEAF5" text-anchor="start" letter-spacing="0">Show FPS counter</text>
<text x="24" y="412" font-family="-apple-system, 'SF Pro Display', 'Segoe UI', Helvetica, Arial, sans-serif" font-size="12" font-weight="bold" fill="#8A85A0" text-anchor="start" letter-spacing="0">Input</text>
<rect x="24" y="419" width="38" height="18" rx="9" ry="9" fill="#241E36"/>
<circle cx="35" cy="428" r="6.5" fill="#FFFFFF"/>
<text x="74" y="433" font-family="-apple-system, 'SF Pro Display', 'Segoe UI', Helvetica, Arial, sans-serif" font-size="11.5" font-weight="normal" fill="#ECEAF5" text-anchor="start" letter-spacing="0">Middle click (thumb + ring)</text>
<rect x="24" y="447" width="38" height="18" rx="9" ry="9" fill="#6C5CE7"/>
<circle cx="51" cy="456" r="6.5" fill="#FFFFFF"/>
<text x="74" y="461" font-family="-apple-system, 'SF Pro Display', 'Segoe UI', Helvetica, Arial, sans-serif" font-size="11.5" font-weight="normal" fill="#ECEAF5" text-anchor="start" letter-spacing="0">Sound feedback (macOS)</text>
<text x="24" y="492" font-family="-apple-system, 'SF Pro Display', 'Segoe UI', Helvetica, Arial, sans-serif" font-size="12" font-weight="bold" fill="#8A85A0" text-anchor="start" letter-spacing="0">Scrolling</text>
<rect x="24" y="499" width="38" height="18" rx="9" ry="9" fill="#6C5CE7"/>
<circle cx="51" cy="508" r="6.5" fill="#FFFFFF"/>
<text x="74" y="513" font-family="-apple-system, 'SF Pro Display', 'Segoe UI', Helvetica, Arial, sans-serif" font-size="11.5" font-weight="normal" fill="#ECEAF5" text-anchor="start" letter-spacing="0">Horizontal scroll</text>
<rect x="24" y="527" width="38" height="18" rx="9" ry="9" fill="#241E36"/>
<circle cx="35" cy="536" r="6.5" fill="#FFFFFF"/>
<text x="74" y="541" font-family="-apple-system, 'SF Pro Display', 'Segoe UI', Helvetica, Arial, sans-serif" font-size="11.5" font-weight="normal" fill="#ECEAF5" text-anchor="start" letter-spacing="0">Scroll inertia (momentum)</text>
<rect x="452" y="152" width="634" height="468" rx="12" ry="12" fill="#1A1626"/>
<rect x="452" y="152" width="634" height="38" rx="12" ry="12" fill="#241E36"/>
<rect x="452" y="172" width="634" height="18" rx="0" ry="0" fill="#241E36"/>
<text x="468" y="176" font-family="-apple-system, 'SF Pro Display', 'Segoe UI', Helvetica, Arial, sans-serif" font-size="13" font-weight="600" fill="#6C5CE7" text-anchor="start" letter-spacing="0">◈  Live Preview</text>
<rect x="982" y="160" width="92" height="22" rx="8" ry="8" fill="#0E0B16"/>
<circle cx="994" cy="171" r="3.5" fill="#8A85A0"/>
<text x="1006" y="175" font-family="-apple-system, 'SF Pro Display', 'Segoe UI', Helvetica, Arial, sans-serif" font-size="11" font-weight="normal" fill="#8A85A0" text-anchor="start" letter-spacing="0">No hand</text>
<rect x="464" y="202" width="610" height="360" rx="10" ry="10" fill="#0E0B16"/>
<text x="769.0" y="352" font-family="-apple-system, 'SF Pro Display', 'Segoe UI', Helvetica, Arial, sans-serif" font-size="26" font-weight="bold" fill="#A855F7" text-anchor="middle" letter-spacing="0">◈</text>
<text x="769.0" y="396" font-family="-apple-system, 'SF Pro Display', 'Segoe UI', Helvetica, Arial, sans-serif" font-size="15" font-weight="600" fill="#8A85A0" text-anchor="middle" letter-spacing="0">Live Preview</text>
<text x="769.0" y="426" font-family="-apple-system, 'SF Pro Display', 'Segoe UI', Helvetica, Arial, sans-serif" font-size="12" font-weight="normal" fill="#8A85A0" text-anchor="middle" letter-spacing="0">Pick a camera, then press  ▶ Start preview.</text>
<text x="769.0" y="446" font-family="-apple-system, 'SF Pro Display', 'Segoe UI', Helvetica, Arial, sans-serif" font-size="12" font-weight="normal" fill="#8A85A0" text-anchor="middle" letter-spacing="0">Watch the glow-cursor track your fingertip —</text>
<text x="769.0" y="466" font-family="-apple-system, 'SF Pro Display', 'Segoe UI', Helvetica, Arial, sans-serif" font-size="12" font-weight="normal" fill="#8A85A0" text-anchor="middle" letter-spacing="0">your real mouse is never touched here.</text>
<rect x="464" y="572" width="610" height="36" rx="9" ry="9" fill="#2DD4BF"/>
<text x="769.0" y="595" font-family="-apple-system, 'SF Pro Display', 'Segoe UI', Helvetica, Arial, sans-serif" font-size="13" font-weight="bold" fill="#06210C" text-anchor="middle" letter-spacing="0">▶  Start preview</text>
<text x="769.0" y="618" font-family="-apple-system, 'SF Pro Display', 'Segoe UI', Helvetica, Arial, sans-serif" font-size="11" font-weight="normal" fill="#8A85A0" text-anchor="middle" letter-spacing="0">Tip: Press I for live session statistics</text>
<rect x="14" y="650" width="1072" height="56" rx="12" ry="12" fill="#241E36"/>
<rect x="24" y="658" width="560" height="40" rx="10" ry="10" fill="url(#launch)"/>
<text x="304" y="683" font-family="-apple-system, 'SF Pro Display', 'Segoe UI', Helvetica, Arial, sans-serif" font-size="16" font-weight="bold" fill="#FFFFFF" text-anchor="middle" letter-spacing="0">◈  Launch AirMouse</text>
<rect x="594" y="658" width="196" height="40" rx="10" ry="10" fill="#1A1626"/>
<text x="692" y="683" font-family="-apple-system, 'SF Pro Display', 'Segoe UI', Helvetica, Arial, sans-serif" font-size="12" font-weight="500" fill="#ECEAF5" text-anchor="middle" letter-spacing="0">⚙  Calibrate + Launch</text>
<rect x="798" y="658" width="130" height="40" rx="10" ry="10" fill="#1A1626"/>
<text x="863" y="683" font-family="-apple-system, 'SF Pro Display', 'Segoe UI', Helvetica, Arial, sans-serif" font-size="12" font-weight="500" fill="#ECEAF5" text-anchor="middle" letter-spacing="0">💾  Save</text>
<rect x="936" y="658" width="150" height="40" rx="10" ry="10" fill="#1A1626"/>
<text x="1011" y="683" font-family="-apple-system, 'SF Pro Display', 'Segoe UI', Helvetica, Arial, sans-serif" font-size="12" font-weight="500" fill="#FB7185" text-anchor="middle" letter-spacing="0">↺  Reset</text>
</svg>
